<?xml version="1.0" encoding="utf-8"?>
<!-- Generated by Mocodo 4.2.4 -->
<svg width="484" height="474" viewBox="0 0 484 474" xmlns="http://www.w3.org/2000/svg">
<rect x="0" y="0" width="484" height="474" fill="#FFFFFF" stroke="none" stroke-width="0"/>

<!-- Association DF0 -->
<g>
	<line x1="215" y1="68" x2="74" y2="68" stroke="#000000" stroke-width="2"/>
	<line x1="74" y1="262" x2="74" y2="68" stroke="#000000" stroke-width="2"/>
	<g>
		<circle cx="74" cy="68" r="16" stroke="#000000" stroke-width="2" fill="#FFFFFF"/>
		<text x="65" y="72" fill="#000000" font-family="Verdana" font-size="12">DF</text>
	</g>
	<text x="144" y="85" fill="#000000" font-family="Verdana" font-size="12">1,1</text>
	<text x="79" y="144" fill="#000000" font-family="Verdana" font-size="12">0,N</text>
</g>

<!-- Association DF1 -->
<g>
	<line x1="215" y1="68" x2="345" y2="68" stroke="#000000" stroke-width="2"/>
	<line x1="345" y1="262" x2="345" y2="68" stroke="#000000" stroke-width="2"/>
	<g>
		<circle cx="345" cy="68" r="16" stroke="#000000" stroke-width="2" fill="#FFFFFF"/>
		<text x="336" y="72" fill="#000000" font-family="Verdana" font-size="12">DF</text>
	</g>
	<text x="265" y="85" fill="#000000" font-family="Verdana" font-size="12">1,1</text>
	<text x="350" y="144" fill="#000000" font-family="Verdana" font-size="12">0,N</text>
</g>

<!-- Association PARTICIPER -->
<g>
	<line x1="345" y1="262" x2="215" y2="262" stroke="#000000" stroke-width="2"/>
	<line x1="74" y1="262" x2="215" y2="262" stroke="#000000" stroke-width="2"/>
	<g>
		<path d="M245 237 a14 14 90 0 1 14 14 V262 h-88 V251 a14 14 90 0 1 14 -14" fill="#FFFFFF" stroke="#FFFFFF" stroke-width="0"/>
		<path d="M259 262 v11 a14 14 90 0 1 -14 14 H185 a14 14 90 0 1 -14 -14 V262 H88" fill="#FFFFFF" stroke="#FFFFFF" stroke-width="0"/>
		<rect x="171" y="237" width="88" height="50" fill="none" rx="14" stroke="#000000" stroke-width="2"/>
		<line x1="171" y1="262" x2="259" y2="262" stroke="#000000" stroke-width="1"/>
		<text x="178" y="254.75" fill="#000000" font-family="Verdana" font-size="12">PARTICIPER</text>
		<text x="178" y="279.8" fill="#000000" font-family="Verdana" font-size="12">statut</text>
	</g>
	<text x="264" y="279" fill="#000000" font-family="Verdana" font-size="12">0,N</text>
	<text x="144" y="279" fill="#000000" font-family="Verdana" font-size="12">0,N</text>
</g>

<!-- Association AIMER -->
<g>
	<line x1="215" y1="431" x2="74" y2="431" stroke="#000000" stroke-width="2"/>
	<line x1="74" y1="262" x2="74" y2="431" stroke="#000000" stroke-width="2"/>
	<g>
		<path d="M87 406 a14 14 90 0 1 14 14 V431 h-54 V420 a14 14 90 0 1 14 -14" fill="#FFFFFF" stroke="#FFFFFF" stroke-width="0"/>
		<path d="M101 431 v11 a14 14 90 0 1 -14 14 H61 a14 14 90 0 1 -14 -14 V431 H54" fill="#FFFFFF" stroke="#FFFFFF" stroke-width="0"/>
		<rect x="47" y="406" width="54" height="50" fill="none" rx="14" stroke="#000000" stroke-width="2"/>
		<line x1="47" y1="431" x2="101" y2="431" stroke="#000000" stroke-width="1"/>
		<text x="54" y="423.75" fill="#000000" font-family="Verdana" font-size="12">AIMER</text>
	</g>
	<text x="139" y="448" fill="#000000" font-family="Verdana" font-size="12">0,N</text>
	<text x="79" y="389" fill="#000000" font-family="Verdana" font-size="12">0,N</text>
</g>

<!-- Association DF2 -->
<g>
	<line x1="215" y1="431" x2="345" y2="431" stroke="#000000" stroke-width="2"/>
	<line x1="345" y1="262" x2="345" y2="431" stroke="#000000" stroke-width="2"/>
	<g>
		<circle cx="345" cy="431" r="16" stroke="#000000" stroke-width="2" fill="#FFFFFF"/>
		<text x="336" y="435" fill="#000000" font-family="Verdana" font-size="12">DF</text>
	</g>
	<text x="269" y="448" fill="#000000" font-family="Verdana" font-size="12">0,1</text>
	<text x="350" y="389" fill="#000000" font-family="Verdana" font-size="12">1,1</text>
</g>

<!-- Entity MESSAGE -->
<g>
	<g>
		<rect x="170" y="17" width="90" height="25" fill="#FFFFFF" stroke="none" stroke-width="0" opacity="1"/>
		<rect x="170" y="42" width="90" height="77" fill="#FFFFFF" stroke="none" stroke-width="0" opacity="1"/>
		<rect x="170" y="17" width="90" height="102" fill="none" stroke="#000000" stroke-width="2" opacity="1"/>
		<line x1="170" y1="42" x2="260" y2="42" stroke="#000000" stroke-width="1"/>
	</g>
	<text x="189" y="34.75" fill="#000000" font-family="Verdana" font-size="12">Message</text>
	<text x="175" y="59.8" fill="#000000" font-family="Verdana" font-size="12">réf. message</text>
	<line x1="175" y1="62" x2="254" y2="62" stroke="#000000" stroke-width="1"/>
	<text x="175" y="76.8" fill="#000000" font-family="Verdana" font-size="12">message</text>
	<text x="175" y="93.8" fill="#000000" font-family="Verdana" font-size="12">est masqué</text>
	<text x="175" y="110.8" fill="#000000" font-family="Verdana" font-size="12">date &amp; heure</text>
</g>

<!-- Entity CODE_POSTAL -->
<g>
	<g>
		<rect x="393" y="9" width="82" height="25" fill="#FFFFFF" stroke="none" stroke-width="0" opacity="1"/>
		<rect x="393" y="34" width="82" height="93" fill="#FFFFFF" stroke="none" stroke-width="0" opacity="1"/>
		<rect x="393" y="9" width="82" height="118" fill="none" stroke="#000000" stroke-width="2" opacity="1"/>
		<line x1="393" y1="34" x2="475" y2="34" stroke="#000000" stroke-width="1"/>
	</g>
	<text x="398" y="26.75" fill="#000000" font-family="Verdana" font-size="12">Code postal</text>
	<text x="398" y="51.8" fill="#000000" font-family="Verdana" font-size="12">réf ville</text>
	<line x1="398" y1="54" x2="444" y2="54" stroke="#000000" stroke-width="1"/>
	<text x="398" y="68.8" fill="#000000" font-family="Verdana" font-size="12">code postal</text>
	<text x="398" y="85.8" fill="#000000" font-family="Verdana" font-size="12">nom ville</text>
	<text x="398" y="102.8" fill="#000000" font-family="Verdana" font-size="12">latitude</text>
	<text x="398" y="119.8" fill="#000000" font-family="Verdana" font-size="12">longitude</text>
</g>

<!-- Entity UTILISATEUR -->
<g>
	<g>
		<rect x="9" y="152" width="130" height="25" fill="#FFFFFF" stroke="none" stroke-width="0" opacity="1"/>
		<rect x="9" y="177" width="130" height="195" fill="#FFFFFF" stroke="none" stroke-width="0" opacity="1"/>
		<rect x="9" y="152" width="130" height="220" fill="none" stroke="#000000" stroke-width="2" opacity="1"/>
		<line x1="9" y1="177" x2="139" y2="177" stroke="#000000" stroke-width="1"/>
	</g>
	<text x="43" y="169.75" fill="#000000" font-family="Verdana" font-size="12">Utilisateur</text>
	<text x="14" y="194.8" fill="#000000" font-family="Verdana" font-size="12">réf. utilisateur</text>
	<line x1="14" y1="197" x2="100" y2="197" stroke="#000000" stroke-width="1"/>
	<text x="14" y="211.8" fill="#000000" font-family="Verdana" font-size="12">nom</text>
	<text x="14" y="228.8" fill="#000000" font-family="Verdana" font-size="12">prénom</text>
	<text x="14" y="245.8" fill="#000000" font-family="Verdana" font-size="12">email</text>
	<text x="14" y="262.8" fill="#000000" font-family="Verdana" font-size="12">date de naissance</text>
	<text x="14" y="279.8" fill="#000000" font-family="Verdana" font-size="12">mot de passe</text>
	<text x="14" y="296.8" fill="#000000" font-family="Verdana" font-size="12">token de reset mdp</text>
	<text x="14" y="313.8" fill="#000000" font-family="Verdana" font-size="12">provider nom</text>
	<text x="14" y="330.8" fill="#000000" font-family="Verdana" font-size="12">provider token</text>
	<text x="14" y="347.8" fill="#000000" font-family="Verdana" font-size="12">genre</text>
	<text x="14" y="364.8" fill="#000000" font-family="Verdana" font-size="12">est admin</text>
</g>

<!-- Entity EVENEMENT -->
<g>
	<g>
		<rect x="291" y="152" width="108" height="25" fill="#FFFFFF" stroke="none" stroke-width="0" opacity="1"/>
		<rect x="291" y="177" width="108" height="195" fill="#FFFFFF" stroke="none" stroke-width="0" opacity="1"/>
		<rect x="291" y="152" width="108" height="220" fill="none" stroke="#000000" stroke-width="2" opacity="1"/>
		<line x1="291" y1="177" x2="399" y2="177" stroke="#000000" stroke-width="1"/>
	</g>
	<text x="311" y="169.75" fill="#000000" font-family="Verdana" font-size="12">Evènement</text>
	<text x="296" y="194.8" fill="#000000" font-family="Verdana" font-size="12">réf. évènement</text>
	<line x1="296" y1="197" x2="389" y2="197" stroke="#000000" stroke-width="1"/>
	<text x="296" y="211.8" fill="#000000" font-family="Verdana" font-size="12">description</text>
	<text x="296" y="228.8" fill="#000000" font-family="Verdana" font-size="12">adresse</text>
	<text x="296" y="245.8" fill="#000000" font-family="Verdana" font-size="12">code postal</text>
	<text x="296" y="262.8" fill="#000000" font-family="Verdana" font-size="12">ville</text>
	<text x="296" y="279.8" fill="#000000" font-family="Verdana" font-size="12">latitude</text>
	<text x="296" y="296.8" fill="#000000" font-family="Verdana" font-size="12">longitude</text>
	<text x="296" y="313.8" fill="#000000" font-family="Verdana" font-size="12">place disponible</text>
	<text x="296" y="330.8" fill="#000000" font-family="Verdana" font-size="12">date &amp; heure</text>
	<text x="296" y="347.8" fill="#000000" font-family="Verdana" font-size="12">statut</text>
	<text x="296" y="364.8" fill="#000000" font-family="Verdana" font-size="12">genre</text>
</g>

<!-- Entity PHOTO -->
<g>
	<g>
		<rect x="166" y="397" width="98" height="25" fill="#FFFFFF" stroke="none" stroke-width="0" opacity="1"/>
		<rect x="166" y="422" width="98" height="43" fill="#FFFFFF" stroke="none" stroke-width="0" opacity="1"/>
		<rect x="166" y="397" width="98" height="68" fill="none" stroke="#000000" stroke-width="2" opacity="1"/>
		<line x1="166" y1="422" x2="264" y2="422" stroke="#000000" stroke-width="1"/>
	</g>
	<text x="198" y="414.75" fill="#000000" font-family="Verdana" font-size="12">Photo</text>
	<text x="171" y="439.8" fill="#000000" font-family="Verdana" font-size="12">réf photo</text>
	<line x1="171" y1="442" x2="227" y2="442" stroke="#000000" stroke-width="1"/>
	<text x="171" y="456.8" fill="#000000" font-family="Verdana" font-size="12">nom du fichier</text>
</g>
</svg>